<svg width="230" height="256" viewBox="0 0 230 256" fill="none" xmlns="http://www.w3.org/2000/svg">
<path d="M4 10H2V248H4V252H8V254H222V252H226V248H228V10H226V6H222V4H8V6H4V10Z" fill="#DDD99C"/>
<path d="M222 2H226V4H222V2Z" fill="#4F3946"/>
<path d="M226 8V4H228V8H226Z" fill="#4F3946"/>
<path d="M228 248V8H230L230 248H228Z" fill="#4F3946"/>
<path d="M4 248L4 252H2L2 248H4Z" fill="#4F3946"/>
<path d="M8 254H4L4 252H8V254Z" fill="#4F3946"/>
<path d="M222 256H8V254L222 254V256Z" fill="#4F3946"/>
<path d="M4 2H8V4H4V2Z" fill="#4F3946"/>
<path d="M8 0H222V2H8V0Z" fill="#4F3946"/>
<path d="M4 4L4 8H2L2 4H4Z" fill="#4F3946"/>
<path d="M2 8L2 248H0L8.78599e-06 8H2Z" fill="#4F3946"/>
<path d="M222 252H226V254L222 254V252Z" fill="#4F3946"/>
<path d="M226 252V248H228V252H226Z" fill="#4F3946"/>
<path d="M226 8H228V10H226V8Z" fill="#EFEAA9"/>
<path d="M222 4H226V6H222V4Z" fill="#EFEAA9"/>
<path d="M8 2H222V4H8V2Z" fill="#EFEAA9"/>
<path d="M4 4H8V6H4V4Z" fill="#EFEAA9"/>
<path d="M2 8H4V10H2V8Z" fill="#EFEAA9"/>
<path d="M2 246H4V248H2V246Z" fill="#C7C286"/>
<path d="M4 250H8V252H4V250Z" fill="#C7C286"/>
<path d="M8 252H222V254H8V252Z" fill="#C7C286"/>
<path d="M222 250H226V252H222V250Z" fill="#C7C286"/>
<path d="M226 246H228V248H226V246Z" fill="#C7C286"/>
</svg>
