<svg width="62" height="36" viewBox="0 0 62 36" fill="none" xmlns="http://www.w3.org/2000/svg">
<path d="M8 0H54V2H8V0Z" fill="#543847"/>
<path d="M8 34H54V36H8V34Z" fill="#543847"/>
<path d="M4 2H8V4H4V2Z" fill="#543847"/>
<path d="M54 2H58V4H54V2Z" fill="#543847"/>
<path d="M4 32H8V34H4V32Z" fill="#543847"/>
<path d="M54 32H58V34H54V32Z" fill="#543847"/>
<path d="M60 4V8H58V4H60Z" fill="#543847"/>
<path d="M4 4L4 8H2L2 4H4Z" fill="#543847"/>
<path d="M60 28V32H58V28H60Z" fill="#543847"/>
<path d="M4 28V32H2L2 28H4Z" fill="#543847"/>
<path d="M2 8L2 28H0L8.74228e-07 8H2Z" fill="#543847"/>
<path d="M62 8V28H60V8H62Z" fill="#543847"/>
<path d="M8 2H54V32H8V2Z" fill="#FAFAFA"/>
<path d="M4 4H58V30H4V4Z" fill="#FAFAFA"/>
<path d="M2 8H60V26H2V8Z" fill="#FAFAFA"/>
<path d="M2 26H4V28H2V26Z" fill="#D6BE9B"/>
<path d="M58 26H60V28H58V26Z" fill="#D6BE9B"/>
<path d="M4 30H8V32H4V30Z" fill="#D6BE9B"/>
<path d="M54 30H58V32H54V30Z" fill="#D6BE9B"/>
<path d="M8 32H54V34H8V32Z" fill="#D6BE9B"/>
<path d="M42.125 24.4062V23.4688H41.1875V22.5312H40.25V21.5938H39.3125V23V24.4062H33.6875V23.4688H32.75V23H31.8125V21.5938H30.875H29.9375V22.5312H29V23.4688H28.0625V24.4062H25.25V23.4688H24.3125V22.5312H23.375V21.5938H22.4375V20.7215H23.375V21.125H24.3125V22.0625H25.25V23H28.0625V22.0625H29V21.125H29.9375V20.7215H30.875H31.8125V21.125H32.75V22.0625H33.6875V23H38.375H39.3125V21.5938V19.7524H40.25V21.125H41.1875V22.0625H42.125V23H46.8125H47.75V24.4062H42.125Z" fill="#D9D9D9"/>
<path d="M16.8125 23.4688V24.4062H22.4375V23H21.5H16.8125V22.0625H15.875V21.125H14.9375V20.7215H14V21.5938H14.9375V22.5312H15.875V23.4688H16.8125Z" fill="#D9D9D9"/>
<path d="M44 16.5V15.5625H44.9375V16.5H44ZM40.25 15.5625V14.625H41.1875V15.5625H40.25ZM41.1875 14.625V13.6875H42.125V14.625H41.1875ZM42.125 23.5312V22.5938H41.1875V21.6562H40.25V20.7188H39.3125V15.5625H40.25V20.25H41.1875V21.1875H42.125V22.125H46.8125V19.3125H44V18.375H46.8125V13.6875H42.125V12.75H47.75V23.5312H42.125Z" fill="#6B291C"/>
<path d="M34.625 19.3125V16.5H35.5625V19.3125H34.625ZM31.8125 15.5625V14.625H32.75V15.5625H31.8125ZM32.75 14.625V13.6875H33.6875V14.625H32.75ZM33.6875 23.5312V22.5938H32.75V22.125H31.8125V20.7188H30.875V15.5625H31.8125V20.25H32.75V21.1875H33.6875V22.125H38.375V8.0625H35.5625V13.6875H33.6875V12.75H34.625V7.125H39.3125V23V23.5312H33.6875Z" fill="#6B291C"/>
<path d="M26.1875 19.3125V16.5H27.125V19.3125H26.1875ZM25.25 23.5312V22.5938H24.3125V21.6562H23.375V20.7188H22.4375V15.5625H23.375V20.25H24.3125V21.1875H25.25V22.125H28.0625V21.1875H29V20.25H29.9375V15.5625H30.875V20.7188H29.9375V21.6562H29V22.5938H28.0625V23.5312H25.25ZM23.375 15.5625V14.625H24.3125V15.5625H23.375ZM29 15.5625V14.625H29.9375V15.5625H29ZM24.3125 14.625V13.6875H25.25V14.625H24.3125ZM28.0625 14.625V13.6875H29V14.625H28.0625ZM25.25 13.6875V12.75H28.0625V13.6875H25.25Z" fill="#6B291C"/>
<path d="M14.9375 15.5625V14.625H15.875V15.5625H14.9375ZM15.875 14.625V13.6875H16.8125V14.625H15.875ZM16.8125 23.5312V22.5938H15.875V21.6562H14.9375V20.7188H14V15.5625H14.9375V20.25H15.875V21.1875H16.8125V22.125H21.5V18.375H18.6875V17.4375H21.5V13.6875H16.8125V12.75H22.4375V23.5312H16.8125Z" fill="#6B291C"/>
<path d="M40.25 15.5625V14.625H41.1875M40.25 15.5625H41.1875V14.625M40.25 15.5625H39.3125V20.7188H40.25V21.6562H41.1875V22.5938H42.125V23.5312H47.75V12.75H42.125V13.6875M40.25 15.5625V20.25H41.1875V21.1875H42.125V22.125H46.8125V19.3125H44V18.375H46.8125V13.6875H42.125M41.1875 14.625V13.6875H42.125M41.1875 14.625H42.125V13.6875M31.8125 15.5625V14.625H32.75M31.8125 15.5625H32.75V14.625M31.8125 15.5625H30.875M31.8125 15.5625V20.25H32.75V21.1875H33.6875V22.125H38.375V8.0625H35.5625V13.6875H33.6875M32.75 14.625V13.6875H33.6875M32.75 14.625H33.6875V13.6875M33.6875 13.6875V12.75H34.625V7.125H39.3125V23M30.875 20.7188H31.8125V22.125H32.75V22.5938H33.6875V23.5312H39.3125V23M30.875 20.7188V15.5625M30.875 20.7188H29.9375V21.6562H29V22.5938H28.0625V23.5312H25.25V22.5938H24.3125V21.6562H23.375V20.7188H22.4375V15.5625H23.375M30.875 15.5625H29.9375M39.3125 23H38.375M23.375 15.5625V20.25H24.3125V21.1875H25.25V22.125H28.0625V21.1875H29V20.25H29.9375V15.5625M23.375 15.5625V14.625H24.3125M23.375 15.5625H24.3125V14.625M29.9375 15.5625V14.625H29M29.9375 15.5625H29V14.625M24.3125 14.625V13.6875H25.25M24.3125 14.625H25.25V13.6875M29 14.625V13.6875H28.0625M29 14.625H28.0625V13.6875M25.25 13.6875V12.75H28.0625V13.6875M25.25 13.6875H28.0625M14.9375 15.5625V14.625H15.875M14.9375 15.5625H15.875V14.625M14.9375 15.5625H14V20.7188H14.9375V21.6562H15.875V22.5938H16.8125V23.5312H22.4375V12.75H16.8125V13.6875M14.9375 15.5625V20.25H15.875V21.1875H16.8125V22.125H21.5V18.375H18.6875V17.4375H21.5V13.6875H16.8125M15.875 14.625V13.6875H16.8125M15.875 14.625H16.8125V13.6875M44 16.5V15.5625H44.9375V16.5H44ZM34.625 19.3125V16.5H35.5625V19.3125H34.625ZM26.1875 19.3125V16.5H27.125V19.3125H26.1875Z" stroke="#6B291C" stroke-width="0.5"/>
</svg>
