<svg width="62" height="36" viewBox="0 0 62 36" fill="none" xmlns="http://www.w3.org/2000/svg">
<path d="M8 0H54V2H8V0Z" fill="#543847"/>
<path d="M8 34H54V36H8V34Z" fill="#543847"/>
<path d="M4 2H8V4H4V2Z" fill="#543847"/>
<path d="M54 2H58V4H54V2Z" fill="#543847"/>
<path d="M4 32H8V34H4V32Z" fill="#543847"/>
<path d="M54 32H58V34H54V32Z" fill="#543847"/>
<path d="M60 4V8H58V4H60Z" fill="#543847"/>
<path d="M4 4L4 8H2L2 4H4Z" fill="#543847"/>
<path d="M60 28V32H58V28H60Z" fill="#543847"/>
<path d="M4 28V32H2L2 28H4Z" fill="#543847"/>
<path d="M2 8L2 28H0L8.74228e-07 8H2Z" fill="#543847"/>
<path d="M62 8V28H60V8H62Z" fill="#543847"/>
<path d="M8 2H54V32H8V2Z" fill="#FAFAFA"/>
<path d="M4 4H58V30H4V4Z" fill="#FAFAFA"/>
<path d="M2 8H60V26H2V8Z" fill="#FAFAFA"/>
<path d="M2 26H4V28H2V26Z" fill="#D6BE9B"/>
<path d="M58 26H60V28H58V26Z" fill="#D6BE9B"/>
<path d="M4 30H8V32H4V30Z" fill="#D6BE9B"/>
<path d="M54 30H58V32H54V30Z" fill="#D6BE9B"/>
<path d="M8 32H54V34H8V32Z" fill="#D6BE9B"/>
<path d="M22 8H24V26H22V8Z" fill="#BB5F4D"/>
<path d="M20 20H26V22H20V20Z" fill="#BB5F4D"/>
<path d="M30 8H32V26H30V8Z" fill="#BB5F4D"/>
<path d="M28 10H34V12H28V10Z" fill="#BB5F4D"/>
<path d="M38 26H40V8H38V26Z" fill="#BB5F4D"/>
<path d="M36 24H42V22H36V24Z" fill="#BB5F4D"/>
<path d="M24 22H26V24H24V22Z" fill="#BCBCBC"/>
<path d="M22 26H24V28H22V26Z" fill="#BCBCBC"/>
<path d="M20 22H22V24H20V22Z" fill="#BCBCBC"/>
<path d="M28 12H30V14H28V12Z" fill="#BCBCBC"/>
<path d="M32 12H34V14H32V12Z" fill="#BCBCBC"/>
<path d="M30 26H32V28H30V26Z" fill="#BCBCBC"/>
<path d="M36 24H38V26H36V24Z" fill="#BCBCBC"/>
<path d="M40 24H42V26H40V24Z" fill="#BCBCBC"/>
<path d="M38 26H40V28H38V26Z" fill="#BCBCBC"/>
</svg>
