<svg width="34" height="30" viewBox="0 0 34 30" fill="none" xmlns="http://www.w3.org/2000/svg">
<path d="M5.21734 13.0435H2.60864V17.4782H5.21734V22.6956H10.4347V25.3043H23.5652V22.6956H28.7825V17.4782H31.3912V13.0435H28.7825V7.82607H23.5652V5.21738H10.4347V7.82607H5.21734V13.0435Z" fill="#DDD99C"/>
<path d="M23.5652 2.6087H28.7826V5.21739H23.5652V2.6087Z" fill="#4F3946"/>
<path d="M28.7826 10.4348V5.21739H31.3913V10.4348H28.7826Z" fill="#4F3946"/>
<path d="M31.3913 19.4782V10.4348H34L34 19.4782H31.3913Z" fill="#4F3946"/>
<path d="M5.21739 19.4782L5.21739 24.6956H2.6087L2.6087 19.4782H5.21739Z" fill="#4F3946"/>
<path d="M10.4348 27.3043H5.21739L5.21739 24.6956H10.4348V27.3043Z" fill="#4F3946"/>
<path d="M23.5652 29.913H10.4348V27.3043L23.5652 27.3044V29.913Z" fill="#4F3946"/>
<path d="M5.21739 2.6087H10.4348V5.21739H5.21739V2.6087Z" fill="#4F3946"/>
<path d="M10.4348 0H23.5652V2.6087H10.4348V0Z" fill="#4F3946"/>
<path d="M5.21739 5.21739L5.21739 10.4348H2.6087L2.6087 5.21739H5.21739Z" fill="#4F3946"/>
<path d="M2.6087 10.4348L2.6087 19.4782H0L1.146e-05 10.4348H2.6087Z" fill="#4F3946"/>
<path d="M23.5652 24.6956H28.7826V27.3043L23.5652 27.3044V24.6956Z" fill="#4F3946"/>
<path d="M28.7826 24.6956V19.4782H31.3913V24.6956H28.7826Z" fill="#4F3946"/>
<path d="M28.7825 10.4348H31.3912V13.0435H28.7825V10.4348Z" fill="#EFEAA9"/>
<path d="M23.5652 5.2174H28.7825V7.82609H23.5652V5.2174Z" fill="#EFEAA9"/>
<path d="M10.4347 2.6087H23.5652V5.2174H10.4347V2.6087Z" fill="#EFEAA9"/>
<path d="M5.21734 5.2174H10.4347V7.82609H5.21734V5.2174Z" fill="#EFEAA9"/>
<path d="M2.60864 10.4348H5.21734V13.0435H2.60864V10.4348Z" fill="#EFEAA9"/>
<path d="M2.60864 16.8695H5.21734V19.4782H2.60864V16.8695Z" fill="#C7C286"/>
<path d="M5.21734 22.0869H10.4347V24.6956H5.21734V22.0869Z" fill="#C7C286"/>
<path d="M10.4347 24.6956H23.5652V27.3043H10.4347V24.6956Z" fill="#C7C286"/>
<path d="M23.5652 22.0869H28.7825V24.6956H23.5652V22.0869Z" fill="#C7C286"/>
<path d="M28.7825 16.8695H31.3912V19.4782H28.7825V16.8695Z" fill="#C7C286"/>
</svg>
