<svg width="179" height="52" viewBox="0 0 179 52" fill="none" xmlns="http://www.w3.org/2000/svg">
<mask id="path-1-outside-1_311_2946" maskUnits="userSpaceOnUse" x="0" y="0" width="179" height="52" fill="black">
<rect fill="white" width="179" height="52"/>
<path fill-rule="evenodd" clip-rule="evenodd" d="M177 42.0442H166.948V46.0221H165.072V48.0111H163.197V50H151.694V38.0663H149.819V36.0773H147.943V34.0884H147.518V42.0442H130.389V40.0552H128.513V38.0663H128.088V42.0442H110.958V40.0552H109.083V38.0663H107.207V34.0884H101.156V42.0442H91.5288V40.0552H89.6534V38.0663H89.2284V42.0442H68.3483V3.98895H85.4775V5.9779H87.353V7.96685H89.2284V17.9116H89.6534V15.9227H91.5288V13.9337H93.4043V11.9448H103.032V13.9337H104.907V15.9227H106.783V17.9116H109.083V15.9227H110.958V13.9337H128.088V17.9116H128.513V15.9227H130.389V13.9337H136.015V3.98895H147.518V11.9448H165.497V2H177V42.0442Z"/>
<path d="M22.8801 17.9116H23.305V15.9227H25.1805V13.9337H27.056V11.9448H36.6833V13.9337H38.5588V15.9227H40.4342V17.9116H40.8601V13.9337H44.611V3.98895H56.1139V13.9337H59.8648V26.1326H56.1139V29.8453H59.8648V42.0442H48.362V40.0552H46.4865V38.0663H44.611V26.1326H42.3097V34.0884H34.8079V42.0442H25.1805V40.0552H23.305V38.0663H22.8801V42.0442H3.87546V40.0552H2V7.96685H3.87546V5.9779H5.75092V3.98895H22.8801V17.9116Z"/>
</mask>
<path fill-rule="evenodd" clip-rule="evenodd" d="M177 42.0442H166.948V46.0221H165.072V48.0111H163.197V50H151.694V38.0663H149.819V36.0773H147.943V34.0884H147.518V42.0442H130.389V40.0552H128.513V38.0663H128.088V42.0442H110.958V40.0552H109.083V38.0663H107.207V34.0884H101.156V42.0442H91.5288V40.0552H89.6534V38.0663H89.2284V42.0442H68.3483V3.98895H85.4775V5.9779H87.353V7.96685H89.2284V17.9116H89.6534V15.9227H91.5288V13.9337H93.4043V11.9448H103.032V13.9337H104.907V15.9227H106.783V17.9116H109.083V15.9227H110.958V13.9337H128.088V17.9116H128.513V15.9227H130.389V13.9337H136.015V3.98895H147.518V11.9448H165.497V2H177V42.0442Z" fill="white"/>
<path d="M22.8801 17.9116H23.305V15.9227H25.1805V13.9337H27.056V11.9448H36.6833V13.9337H38.5588V15.9227H40.4342V17.9116H40.8601V13.9337H44.611V3.98895H56.1139V13.9337H59.8648V26.1326H56.1139V29.8453H59.8648V42.0442H48.362V40.0552H46.4865V38.0663H44.611V26.1326H42.3097V34.0884H34.8079V42.0442H25.1805V40.0552H23.305V38.0663H22.8801V42.0442H3.87546V40.0552H2V7.96685H3.87546V5.9779H5.75092V3.98895H22.8801V17.9116Z" fill="white"/>
<path fill-rule="evenodd" clip-rule="evenodd" d="M177 42.0442H166.948V46.0221H165.072V48.0111H163.197V50H151.694V38.0663H149.819V36.0773H147.943V34.0884H147.518V42.0442H130.389V40.0552H128.513V38.0663H128.088V42.0442H110.958V40.0552H109.083V38.0663H107.207V34.0884H101.156V42.0442H91.5288V40.0552H89.6534V38.0663H89.2284V42.0442H68.3483V3.98895H85.4775V5.9779H87.353V7.96685H89.2284V17.9116H89.6534V15.9227H91.5288V13.9337H93.4043V11.9448H103.032V13.9337H104.907V15.9227H106.783V17.9116H109.083V15.9227H110.958V13.9337H128.088V17.9116H128.513V15.9227H130.389V13.9337H136.015V3.98895H147.518V11.9448H165.497V2H177V42.0442Z" stroke="#543847" stroke-width="4" mask="url(#path-1-outside-1_311_2946)"/>
<path d="M22.8801 17.9116H23.305V15.9227H25.1805V13.9337H27.056V11.9448H36.6833V13.9337H38.5588V15.9227H40.4342V17.9116H40.8601V13.9337H44.611V3.98895H56.1139V13.9337H59.8648V26.1326H56.1139V29.8453H59.8648V42.0442H48.362V40.0552H46.4865V38.0663H44.611V26.1326H42.3097V34.0884H34.8079V42.0442H25.1805V40.0552H23.305V38.0663H22.8801V42.0442H3.87546V40.0552H2V7.96685H3.87546V5.9779H5.75092V3.98895H22.8801V17.9116Z" stroke="#543847" stroke-width="4" mask="url(#path-1-outside-1_311_2946)"/>
<path d="M167.333 40V32.5H174.833V40H167.333ZM167.333 28.75V6.25H174.833V28.75H167.333Z" fill="#00A848"/>
<path d="M153.533 47.5V40H157.283V36.25H151.658V34.375H149.783V32.5H147.908V15.625H155.408V28.75H157.283V15.625H164.783V43.75H162.908V45.625H161.033V47.5H153.533Z" fill="#00A848"/>
<path d="M137.858 34.375V25H135.983V34.375H137.858ZM132.233 40V38.125H130.358V36.25H128.483V21.25H130.358V19.375H132.233V17.5H137.858V8.125H145.358V40H132.233Z" fill="#00A848"/>
<path d="M118.433 34.375V25H116.558V34.375H118.433ZM112.808 40V38.125H110.933V36.25H109.058V21.25H110.933V19.375H112.808V17.5H125.933V40H112.808Z" fill="#00A848"/>
<path d="M99.0078 30.625V25H97.1328V30.625H99.0078ZM93.3828 40V38.125H91.5078V36.25H89.6328V21.25H91.5078V19.375H93.3828V17.5H95.2578V15.625H100.883V17.5H102.758V19.375H104.633V21.25H106.508V32.5H99.0078V40H93.3828Z" fill="#00A848"/>
<path d="M79.5828 25V17.5H77.7078V25H79.5828ZM70.2078 40V8.125H83.3328V10H85.2078V11.875H87.0828V26.875H85.2078V28.75H83.3328V30.625H81.4578V32.5H83.3328V34.375H85.2078V36.25H87.0828V40H79.5828V34.375H77.7078V40H70.2078Z" fill="#00A848"/>
<path d="M50.2251 40V38.125H48.3501V36.25H46.4751V25H42.7251V17.5H46.4751V8.125H53.9751V17.5H57.7251V25H53.9751V32.5H57.7251V40H50.2251Z" fill="#00A848"/>
<path d="M32.675 30.625V25H30.8V30.625H32.675ZM27.05 40V38.125H25.175V36.25H23.3V21.25H25.175V19.375H27.05V17.5H28.925V15.625H34.55V17.5H36.425V19.375H38.3V21.25H40.175V32.5H32.675V40H27.05Z" fill="#00A848"/>
<path d="M5.75 40V38.125H3.875V11.875H5.75V10H7.625V8.125H20.75V15.625H11.375V34.375H13.25V19.375H20.75V40H5.75Z" fill="#00A848"/>
<path d="M167.333 38V30.5H174.833V38H167.333ZM167.333 26.75V4.25H174.833V26.75H167.333Z" fill="#58D858"/>
<path d="M153.533 45.5V38H157.283V34.25H151.658V32.375H149.783V30.5H147.908V13.625H155.408V26.75H157.283V13.625H164.783V41.75H162.908V43.625H161.033V45.5H153.533Z" fill="#58D858"/>
<path d="M137.858 32.375V23H135.983V32.375H137.858ZM132.233 38V36.125H130.358V34.25H128.483V19.25H130.358V17.375H132.233V15.5H137.858V6.125H145.358V38H132.233Z" fill="#58D858"/>
<path d="M118.433 32.375V23H116.558V32.375H118.433ZM112.808 38V36.125H110.933V34.25H109.058V19.25H110.933V17.375H112.808V15.5H125.933V38H112.808Z" fill="#58D858"/>
<path d="M99.0078 28.625V23H97.1328V28.625H99.0078ZM93.3828 38V36.125H91.5078V34.25H89.6328V19.25H91.5078V17.375H93.3828V15.5H95.2578V13.625H100.883V15.5H102.758V17.375H104.633V19.25H106.508V30.5H99.0078V38H93.3828Z" fill="#58D858"/>
<path d="M79.5828 23V15.5H77.7078V23H79.5828ZM70.2078 38V6.125H83.3328V8H85.2078V9.875H87.0828V24.875H85.2078V26.75H83.3328V28.625H81.4578V30.5H83.3328V32.375H85.2078V34.25H87.0828V38H79.5828V32.375H77.7078V38H70.2078Z" fill="#58D858"/>
<path d="M50.2251 38V36.125H48.3501V34.25H46.4751V23H42.7251V15.5H46.4751V6.125H53.9751V15.5H57.7251V23H53.9751V30.5H57.7251V38H50.2251Z" fill="#58D858"/>
<path d="M32.675 28.625V23H30.8V28.625H32.675ZM27.05 38V36.125H25.175V34.25H23.3V19.25H25.175V17.375H27.05V15.5H28.925V13.625H34.55V15.5H36.425V17.375H38.3V19.25H40.175V30.5H32.675V38H27.05Z" fill="#58D858"/>
<path d="M5.75 38V36.125H3.875V9.875H5.75V8H7.625V6.125H20.75V13.625H11.375V32.375H13.25V17.375H20.75V38H5.75Z" fill="#58D858"/>
</svg>
