<svg width="95" height="53" viewBox="0 0 95 53" fill="none" xmlns="http://www.w3.org/2000/svg">
<path d="M7.30769 0H87.6923V1.82759H7.30769V0Z" fill="#543847"/>
<path d="M7.30769 51.1724H87.6923V53H7.30769V51.1724Z" fill="#543847"/>
<path d="M3.65385 1.82759H7.30769V3.65517H3.65385V1.82759Z" fill="#543847"/>
<path d="M87.6923 1.82759H91.3462V3.65517H87.6923V1.82759Z" fill="#543847"/>
<path d="M3.65385 49.3448H7.30769V51.1724H3.65385V49.3448Z" fill="#543847"/>
<path d="M87.6923 49.3448H91.3462V51.1724H87.6923V49.3448Z" fill="#543847"/>
<path d="M93.1731 3.65517V7.31034H91.3462V3.65517H93.1731Z" fill="#543847"/>
<path d="M3.65385 3.65517L3.65385 7.31034H1.82692L1.82692 3.65517H3.65385Z" fill="#543847"/>
<path d="M93.1731 45.6897V49.3448H91.3462V45.6897H93.1731Z" fill="#543847"/>
<path d="M3.65385 45.6897V49.3448H1.82692L1.82692 45.6897H3.65385Z" fill="#543847"/>
<path d="M1.82692 7.31034L1.82692 45.6897H0L7.98573e-07 7.31034H1.82692Z" fill="#543847"/>
<path d="M95 7.31034V45.6897H93.1731V7.31034H95Z" fill="#543847"/>
<path d="M7.30767 1.82758H87.6923V49.3448H7.30767V1.82758Z" fill="#FAFAFA"/>
<path d="M3.65383 3.65516H91.3461V47.5172H3.65383V3.65516Z" fill="#FAFAFA"/>
<path d="M1.8269 7.31033H93.1731V43.8621H1.8269V7.31033Z" fill="#FAFAFA"/>
<path d="M7.30767 1.82758H87.6923V25.5862H7.30767V1.82758Z" fill="#543847"/>
<path d="M3.65383 3.65516H91.3461V25.5862H3.65383V3.65516Z" fill="#543847"/>
<path d="M1.8269 7.31033H93.1731V25.5862H1.8269V7.31033Z" fill="#543847"/>
<path d="M7.30767 49.3448H87.6923V25.5862H7.30767V49.3448Z" fill="#543847"/>
<path d="M3.65383 47.5173H91.3461V25.5862H3.65383V47.5173Z" fill="#543847"/>
<path d="M1.8269 43.8621H93.1731V25.5862H1.8269V43.8621Z" fill="#543847"/>
<path d="M1.8269 43.8621H3.65383V45.6896H1.8269V43.8621Z" fill="#2A2227"/>
<path d="M91.3461 43.8621H93.1731V45.6896H91.3461V43.8621Z" fill="#2A2227"/>
<path d="M3.65383 47.5172H7.30767V49.3448H3.65383V47.5172Z" fill="#2A2227"/>
<path d="M87.6923 47.5172H91.3461V49.3448H87.6923V47.5172Z" fill="#2A2227"/>
<path d="M7.30767 49.3448H87.6923V51.1724H7.30767V49.3448Z" fill="#2A2227"/>
<path d="M28 18.6658V13H71V18H69V21H66V24H63V27H60.5V29.5H57.5V32.5H54.5V35H51.5V38H48.5V41H45.5V43.5H39.5V30.5H46V27.5H51.5V24.5H57V21.5H51V24H45.5V27H36.5V24.5H33.5V21.5H31V18.6658H28Z" fill="#BCBCBC"/>
<path d="M28 17.6658V12H71V17H69V20H66V23H63V26H60.5V28.5H57.5V31.5H54.5V34H51.5V37H48.5V40H45.5V42.5H39.5V29.5H46V26.5H51.5V23.5H57V20.5H51V23H45.5V26H36.5V23.5H33.5V20.5H31V17.6658H28Z" fill="white"/>
</svg>
