<svg width="308" height="71" viewBox="0 0 308 71" fill="none" xmlns="http://www.w3.org/2000/svg">
<mask id="path-1-outside-1_299_2703" maskUnits="userSpaceOnUse" x="0" y="0" width="308" height="71" fill="black">
<rect fill="white" width="308" height="71"/>
<path d="M135.25 38.375H138.375V19.625H147.75V60.25H144.625V63.375H141.5V66.5H132.125V57.125H138.375V47.75H132.125V44.625H129V41.5H125.875V19.625H135.25V38.375Z"/>
<path d="M291.5 38.375H294.625V19.625H304V60.25H300.875V63.375H297.75V66.5H288.375V57.125H294.625V47.75H288.375V44.625H285.25V41.5H282.125V19.625H291.5V38.375Z"/>
<path fill-rule="evenodd" clip-rule="evenodd" d="M85.25 25.875H88.375V29H91.5V44.625H88.375V47.75H85.25V50.875H79V63.375H69.625V22.75H85.25V25.875ZM78.875 41.5H82V32.125H78.875V41.5Z"/>
<path fill-rule="evenodd" clip-rule="evenodd" d="M113.375 25.875H116.5V29H119.625V44.625H116.5V47.75H113.375V50.875H107.125V63.375H97.75V22.75H113.375V25.875ZM107.125 41.5H110.25V32.125H107.125V41.5Z"/>
<path fill-rule="evenodd" clip-rule="evenodd" d="M241.5 25.875H244.625V29H247.75V44.625H244.625V47.75H241.5V50.875H235.25V63.375H225.875V22.75H241.5V25.875ZM235.25 41.5H238.375V32.125H235.25V41.5Z"/>
<path fill-rule="evenodd" clip-rule="evenodd" d="M269.625 25.875H272.75V29H275.875V44.625H272.75V47.75H269.625V50.875H263.375V63.375H254V22.75H269.625V25.875ZM263.375 41.5H266.5V32.125H263.375V41.5Z"/>
<path d="M191.5 25.875H197.75V29H200.875V32.125H204V54H194.625V38.375H191.5V54H182.125V13.375H191.5V25.875Z"/>
<path d="M19.625 13.375H13.375V22.75H19.625V29H13.375V50.875H4V10.25H7.125V7.125H10.25V4H19.625V13.375Z"/>
<path d="M35.25 50.875H25.875V7.125H35.25V50.875Z"/>
<path fill-rule="evenodd" clip-rule="evenodd" d="M63.375 50.875H47.75V47.75H44.625V44.625H41.5V29H44.625V25.875H47.75V22.75H63.375V50.875ZM50.875 41.5H54V32.125H50.875V41.5Z"/>
<path d="M175.875 25.875H166.5V29H175.875V50.875H160.25V47.75H157.125V44.625H154V10.25H157.125V7.125H160.25V4H175.875V25.875Z"/>
<path d="M219.625 50.875H210.25V29H219.625V50.875Z"/>
<path d="M219.625 25.875H210.25V16.5H219.625V25.875Z"/>
</mask>
<path d="M135.25 38.375H138.375V19.625H147.75V60.25H144.625V63.375H141.5V66.5H132.125V57.125H138.375V47.75H132.125V44.625H129V41.5H125.875V19.625H135.25V38.375Z" fill="white"/>
<path d="M291.5 38.375H294.625V19.625H304V60.25H300.875V63.375H297.75V66.5H288.375V57.125H294.625V47.75H288.375V44.625H285.25V41.5H282.125V19.625H291.5V38.375Z" fill="white"/>
<path fill-rule="evenodd" clip-rule="evenodd" d="M85.25 25.875H88.375V29H91.5V44.625H88.375V47.75H85.25V50.875H79V63.375H69.625V22.75H85.25V25.875ZM78.875 41.5H82V32.125H78.875V41.5Z" fill="white"/>
<path fill-rule="evenodd" clip-rule="evenodd" d="M113.375 25.875H116.5V29H119.625V44.625H116.5V47.75H113.375V50.875H107.125V63.375H97.75V22.75H113.375V25.875ZM107.125 41.5H110.25V32.125H107.125V41.5Z" fill="white"/>
<path fill-rule="evenodd" clip-rule="evenodd" d="M241.5 25.875H244.625V29H247.75V44.625H244.625V47.75H241.5V50.875H235.25V63.375H225.875V22.75H241.5V25.875ZM235.25 41.5H238.375V32.125H235.25V41.5Z" fill="white"/>
<path fill-rule="evenodd" clip-rule="evenodd" d="M269.625 25.875H272.75V29H275.875V44.625H272.75V47.75H269.625V50.875H263.375V63.375H254V22.75H269.625V25.875ZM263.375 41.5H266.5V32.125H263.375V41.5Z" fill="white"/>
<path d="M191.5 25.875H197.75V29H200.875V32.125H204V54H194.625V38.375H191.5V54H182.125V13.375H191.5V25.875Z" fill="white"/>
<path d="M19.625 13.375H13.375V22.75H19.625V29H13.375V50.875H4V10.25H7.125V7.125H10.25V4H19.625V13.375Z" fill="white"/>
<path d="M35.25 50.875H25.875V7.125H35.25V50.875Z" fill="white"/>
<path fill-rule="evenodd" clip-rule="evenodd" d="M63.375 50.875H47.75V47.75H44.625V44.625H41.5V29H44.625V25.875H47.75V22.75H63.375V50.875ZM50.875 41.5H54V32.125H50.875V41.5Z" fill="white"/>
<path d="M175.875 25.875H166.5V29H175.875V50.875H160.25V47.75H157.125V44.625H154V10.25H157.125V7.125H160.25V4H175.875V25.875Z" fill="white"/>
<path d="M219.625 50.875H210.25V29H219.625V50.875Z" fill="white"/>
<path d="M219.625 25.875H210.25V16.5H219.625V25.875Z" fill="white"/>
<path d="M135.25 38.375H138.375V19.625H147.75V60.25H144.625V63.375H141.5V66.5H132.125V57.125H138.375V47.75H132.125V44.625H129V41.5H125.875V19.625H135.25V38.375Z" stroke="#3A2B33" stroke-width="8" mask="url(#path-1-outside-1_299_2703)"/>
<path d="M291.5 38.375H294.625V19.625H304V60.25H300.875V63.375H297.75V66.5H288.375V57.125H294.625V47.75H288.375V44.625H285.25V41.5H282.125V19.625H291.5V38.375Z" stroke="#3A2B33" stroke-width="8" mask="url(#path-1-outside-1_299_2703)"/>
<path fill-rule="evenodd" clip-rule="evenodd" d="M85.25 25.875H88.375V29H91.5V44.625H88.375V47.75H85.25V50.875H79V63.375H69.625V22.75H85.25V25.875ZM78.875 41.5H82V32.125H78.875V41.5Z" stroke="#3A2B33" stroke-width="8" mask="url(#path-1-outside-1_299_2703)"/>
<path fill-rule="evenodd" clip-rule="evenodd" d="M113.375 25.875H116.5V29H119.625V44.625H116.5V47.75H113.375V50.875H107.125V63.375H97.75V22.75H113.375V25.875ZM107.125 41.5H110.25V32.125H107.125V41.5Z" stroke="#3A2B33" stroke-width="8" mask="url(#path-1-outside-1_299_2703)"/>
<path fill-rule="evenodd" clip-rule="evenodd" d="M241.5 25.875H244.625V29H247.75V44.625H244.625V47.75H241.5V50.875H235.25V63.375H225.875V22.75H241.5V25.875ZM235.25 41.5H238.375V32.125H235.25V41.5Z" stroke="#3A2B33" stroke-width="8" mask="url(#path-1-outside-1_299_2703)"/>
<path fill-rule="evenodd" clip-rule="evenodd" d="M269.625 25.875H272.75V29H275.875V44.625H272.75V47.75H269.625V50.875H263.375V63.375H254V22.75H269.625V25.875ZM263.375 41.5H266.5V32.125H263.375V41.5Z" stroke="#3A2B33" stroke-width="8" mask="url(#path-1-outside-1_299_2703)"/>
<path d="M191.5 25.875H197.75V29H200.875V32.125H204V54H194.625V38.375H191.5V54H182.125V13.375H191.5V25.875Z" stroke="#3A2B33" stroke-width="8" mask="url(#path-1-outside-1_299_2703)"/>
<path d="M19.625 13.375H13.375V22.75H19.625V29H13.375V50.875H4V10.25H7.125V7.125H10.25V4H19.625V13.375Z" stroke="#3A2B33" stroke-width="8" mask="url(#path-1-outside-1_299_2703)"/>
<path d="M35.25 50.875H25.875V7.125H35.25V50.875Z" stroke="#3A2B33" stroke-width="8" mask="url(#path-1-outside-1_299_2703)"/>
<path fill-rule="evenodd" clip-rule="evenodd" d="M63.375 50.875H47.75V47.75H44.625V44.625H41.5V29H44.625V25.875H47.75V22.75H63.375V50.875ZM50.875 41.5H54V32.125H50.875V41.5Z" stroke="#3A2B33" stroke-width="8" mask="url(#path-1-outside-1_299_2703)"/>
<path d="M175.875 25.875H166.5V29H175.875V50.875H160.25V47.75H157.125V44.625H154V10.25H157.125V7.125H160.25V4H175.875V25.875Z" stroke="#3A2B33" stroke-width="8" mask="url(#path-1-outside-1_299_2703)"/>
<path d="M219.625 50.875H210.25V29H219.625V50.875Z" stroke="#3A2B33" stroke-width="8" mask="url(#path-1-outside-1_299_2703)"/>
<path d="M219.625 25.875H210.25V16.5H219.625V25.875Z" stroke="#3A2B33" stroke-width="8" mask="url(#path-1-outside-1_299_2703)"/>
</svg>
